<?xml version="1.0" encoding="UTF-8"?>
<svg id="_Слой_2" data-name="Слой 2" xmlns="http://www.w3.org/2000/svg" xmlns:xlink="http://www.w3.org/1999/xlink"
     viewBox="0 0 960.01 961.55">
    <defs>
        <style>
            .cls-1, .cls-2 {
            fill: #fff;
            stroke-width: 0px;
            }

            .cls-2 {
            stroke-linecap: round;
            stroke-width: 0px;
            <!--            fill: #fff;-->
            }

            .cls-2, .cls-3 {
            stroke: #fff;
            stroke-width: 10px;
            stroke-miterlimit: 10;
            }

            .cls-4 {
            fill: transparent;
            stroke: #fff;
            stroke-width: 0px;
            }

            .cls-3 {
            fill: #FBB040;

            stroke-width: 0px;
            }
        </style>
        <linearGradient id="animated_gradient" x1="0%" y1="0%" x2="100%" y2="100%" gradientUnits="userSpaceOnUse">
            <!-- Create more color stops for smoother transition -->

            <!--            <stop offset="20%" stop-color="#ea551d">-->
            <!--                <animate attributeName="stop-color"-->
            <!--                         values="#ea551d;#be5299;#688fca;#427fc1;#3f51b5;#ffeb3b;#ea551d"-->
            <!--                         dur="10s"-->
            <!--                         repeatCount="indefinite"/>-->
            <!--            </stop>-->
            <!--            <stop offset="40%" stop-color="#e83179">-->
            <!--                <animate attributeName="stop-color"-->
            <!--                         values="#e83179;#688fca;#427fc1;#009688;#f44336;#ff9800;#e83179"-->
            <!--                         dur="10s"-->
            <!--                         repeatCount="indefinite"/>-->
            <!--            </stop>-->
            <!--            <stop offset="60%" stop-color="#be5299">-->
            <!--                <animate attributeName="stop-color"-->
            <!--                         values="#be5299;#427fc1;#03a9f4;#4caf50;#9c27b0;#ff5722;#be5299"-->
            <!--                         dur="10s"-->
            <!--                         repeatCount="indefinite"/>-->
            <!--            </stop>-->
            <!--            <stop offset="80%" stop-color="#688fca">-->
            <!--                <animate attributeName="stop-color"-->
            <!--                         values="#688fca;#2196f3;#009688;#cddc39;#673ab7;#795548;#688fca"-->
            <!--                         dur="10s"-->
            <!--                         repeatCount="indefinite"/>-->
            <!--            </stop>-->
            <stop offset="100%" stop-color="#427fc1">
                <animate attributeName="stop-color"
                         values="#427fc1;#00bcd4;#8bc34a;#ffc107;#3f51b5;#9e9e9e;#427fc1"
                         dur="10s"
                         repeatCount="indefinite"/>
            </stop>

            <!-- Animate the gradient direction by rotating it -->
            <!--            <animateTransform attributeName="gradientTransform"-->
            <!--                              type="rotate"-->
            <!--                              values="0 480 480;90 480 480;180 480 480;270 480 480;360 480 480"-->
            <!--                              dur="15s"-->
            <!--                              repeatCount="indefinite"/>-->

            <!--            &lt;!&ndash; Move the gradient across the surface &ndash;&gt;-->
            <!--            <animate attributeName="x1" values="-20%;0%;20%;0%;-20%" dur="7s" repeatCount="indefinite"/>-->
            <!--            <animate attributeName="y1" values="0%;-20%;0%;20%;0%" dur="7s" repeatCount="indefinite"/>-->
            <!--            <animate attributeName="x2" values="120%;100%;80%;100%;120%" dur="7s" repeatCount="indefinite"/>-->
            <!--            <animate attributeName="y2" values="100%;120%;100%;80%;100%" dur="7s" repeatCount="indefinite"/>-->
        </linearGradient>
    </defs>
    <g id="_Слой_6" data-name="Слой 6">
        <g>
            <path class="cls-4"
                  d="M960.01,480c0,9.16-.26,18.26-.77,27.29-.01.12-.02.25-.02.38-.04.67-.08,1.35-.13,2.03-.05.94-.11,1.88-.18,2.82-.05.88-.12,1.76-.18,2.64-.19,2.82-.42,5.62-.68,8.42-.29,3.3-.62,6.59-.99,9.87-.11,1.07-.23,2.14-.37,3.2-.34,2.96-.71,5.92-1.12,8.86-.39,2.88-.8,5.75-1.26,8.61-.12.78-.24,1.56-.37,2.34-.21,1.35-.44,2.69-.66,4.04-.45,2.69-.92,5.37-1.43,8.04-.44,2.38-.9,4.75-1.39,7.11-.01.08-.03.15-.04.23-.16.8-.33,1.6-.49,2.4-.17.8-.34,1.6-.51,2.39-.01.05-.02.1-.03.15-.63,2.94-1.27,5.87-1.96,8.79-.73,3.15-1.51,6.28-2.31,9.4-.28,1.12-.57,2.23-.86,3.34-.19.75-.39,1.51-.6,2.26-.2.75-.41,1.49-.61,2.24-.18.65-.36,1.31-.54,1.97-.18.65-.36,1.3-.55,1.96-.02.09-.05.18-.07.26-.44,1.58-.9,3.15-1.37,4.72,0,.01,0,.02,0,.03l-.66,2.22c-.22.74-.44,1.48-.67,2.22-.5,1.66-1.01,3.31-1.54,4.96-.24.75-.48,1.49-.72,2.24-.18.55-.35,1.09-.53,1.64-.48,1.46-.96,2.93-1.45,4.39-.49,1.46-.99,2.92-1.5,4.38-.51,1.45-1.02,2.91-1.54,4.35-.52,1.45-1.05,2.89-1.58,4.33-.53,1.45-1.07,2.88-1.61,4.31h-.01c-1.09,2.88-2.21,5.74-3.36,8.58-.58,1.42-1.16,2.83-1.74,4.24-.12.3-.25.58-.37.88-.36.87-.73,1.73-1.09,2.6-.11.25-.21.51-.32.76-.35.83-.71,1.65-1.07,2.47-.25.59-.5,1.17-.75,1.76-.61,1.4-1.23,2.79-1.86,4.18-.26.58-.53,1.17-.79,1.76-.49,1.11-1,2.22-1.52,3.32-.5,1.08-1.01,2.16-1.52,3.24-.05.1-.1.2-.14.3-1.27,2.7-2.57,5.38-3.89,8.04-.04.07-.07.14-.1.21-.12.24-.24.48-.36.72-.93,1.87-1.87,3.73-2.83,5.58-.26.51-.52,1.01-.78,1.52-.07.13-.14.26-.2.39-1.29,2.48-2.61,4.95-3.94,7.4-.05.09-.1.18-.14.27-.23.41-.46.83-.68,1.24-1.13,2.06-2.27,4.1-3.42,6.14-.12.22-.24.44-.37.65-.48.84-.96,1.68-1.45,2.51-.26.45-.52.9-.78,1.35-.38.66-.76,1.31-1.15,1.97-.38.65-.77,1.3-1.16,1.96-.77,1.3-1.55,2.6-2.34,3.89-.39.65-.78,1.3-1.18,1.94-.39.65-.79,1.29-1.2,1.94-.38.62-.77,1.23-1.16,1.85-.37.59-.73,1.19-1.11,1.78-.85,1.35-1.71,2.7-2.58,4.04-.02.03-.04.06-.06.09-.47.73-.94,1.46-1.43,2.18-.33.51-.66,1.02-1,1.53-.82,1.25-1.65,2.49-2.49,3.73-.5.75-1,1.49-1.51,2.22-.36.53-.72,1.06-1.08,1.58-.35.52-.71,1.04-1.08,1.56-1.35,1.97-2.73,3.92-4.12,5.86-7.16,10.01-14.7,19.73-22.61,29.14-2.33,2.8-4.71,5.57-7.12,8.31h0c-5.02,5.73-10.18,11.33-15.47,16.8-4.22,4.38-8.53,8.67-12.91,12.89-1.08,1.04-2.17,2.07-3.26,3.09-.8.76-1.61,1.52-2.42,2.27-2.1,1.97-4.23,3.91-6.37,5.81-1.01.92-2.04,1.83-3.07,2.74-2.05,1.81-4.12,3.6-6.21,5.38-1.04.89-2.09,1.77-3.14,2.65-2.1,1.76-4.21,3.5-6.34,5.23-1.07.86-2.14,1.71-3.21,2.57-39.01,31-82.97,56.06-130.48,73.81-.05.02-.1.04-.15.06-8.64,3.22-17.4,6.21-26.27,8.94-8.04,2.48-16.17,4.75-24.38,6.8-37.5,9.41-76.74,14.4-117.15,14.4s-79.63-4.99-117.12-14.4c-4.75-1.19-9.48-2.45-14.17-3.78-12.3-3.49-24.39-7.45-36.26-11.87-.11-.04-.22-.09-.33-.13-65.29-24.37-123.84-62.55-172.11-110.99-.83-.83-1.66-1.67-2.47-2.51-1.97-1.99-3.9-3.99-5.81-6.01-6.78-7.14-13.34-14.5-19.66-22.05-22.96-27.36-42.91-57.32-59.37-89.36-.1-.17-.19-.34-.27-.52-.69-1.36-1.38-2.72-2.06-4.08-2.3-4.6-4.53-9.25-6.69-13.94-2.15-4.69-4.24-9.42-6.25-14.19-1.31-3.12-2.59-6.26-3.84-9.41-.62-1.56-1.23-3.13-1.84-4.71-.12-.28-.23-.57-.33-.86-.55-1.43-1.09-2.87-1.62-4.31-.6-1.61-1.19-3.23-1.77-4.85-.03-.06-.05-.12-.07-.19-.56-1.58-1.12-3.17-1.67-4.75-.57-1.64-1.13-3.28-1.68-4.92h0c-1.1-3.31-2.16-6.62-3.2-9.95-2.04-6.61-3.95-13.29-5.72-20.02-.01-.04-.03-.09-.03-.13-2.64-10.06-4.96-20.24-6.95-30.55l-.06-.33c-.33-1.73-.66-3.47-.97-5.21-.32-1.75-.62-3.49-.92-5.24-.29-1.75-.58-3.5-.86-5.26-.27-1.75-.54-3.51-.8-5.27-.03-.18-.06-.35-.08-.53-.23-1.59-.45-3.18-.67-4.77-.19-1.42-.37-2.84-.55-4.27-.05-.35-.09-.69-.13-1.04-.66-5.32-1.23-10.67-1.72-16.05-.16-1.79-.31-3.58-.45-5.38-.07-.76-.12-1.52-.17-2.28-.18-2.44-.34-4.89-.49-7.34-.03-.51-.07-1.01-.09-1.51-.09-1.7-.17-3.41-.25-5.12-.24-5.44-.4-10.9-.46-16.39-.02-1.83-.03-3.66-.03-5.49,0-6.21.12-12.4.35-18.55.08-2.02.17-4.03.27-6.04,0-.07,0-.14.01-.21.1-2.01.22-4.02.34-6.02.26-4.08.57-8.14.93-12.19.9-10.09,2.1-20.08,3.61-29.98,3.95-25.85,9.96-51.03,17.85-75.35,1.83-5.61,3.75-11.17,5.76-16.68,1.35-3.68,2.74-7.33,4.17-10.96.71-1.82,1.44-3.63,2.18-5.44,2.95-7.22,6.08-14.35,9.36-21.39,4.11-8.8,8.48-17.46,13.1-25.96,1.88-3.46,3.79-6.89,5.76-10.29.84-1.47,1.7-2.93,2.56-4.39.11-.2.23-.41.35-.61.93-1.56,1.86-3.11,2.79-4.65.06-.11.12-.21.19-.31.83-1.36,1.66-2.71,2.5-4.06.29-.49.59-.97.91-1.45,2.91-4.66,5.91-9.26,8.98-13.81,0,0,.01-.02.02-.03,3.23-4.78,6.55-9.49,9.94-14.15,1.13-1.55,2.28-3.1,3.43-4.64,1.15-1.54,2.31-3.07,3.48-4.6C186.58,73.83,324.67.05,480,.05c128.41,0,245.04,50.41,331.18,132.53,4.17,3.98,8.26,8.02,12.29,12.15,1.34,1.37,2.67,2.75,4,4.14.06.05.1.1.14.14,1.27,1.34,2.54,2.69,3.8,4.05,1.31,1.4,2.61,2.82,3.9,4.24,1.29,1.41,2.57,2.83,3.83,4.26.17.18.33.36.49.55,1.01,1.14,2.02,2.29,3.02,3.44.55.63,1.1,1.28,1.65,1.92,2.04,2.38,4.06,4.77,6.05,7.19.03.02.05.05.08.08.99,1.21,1.99,2.43,2.98,3.66.27.33.55.67.81,1.01,1.15,1.42,2.28,2.85,3.41,4.28.8,1.02,1.6,2.05,2.4,3.08.09.11.17.22.25.33.62.79,1.23,1.59,1.84,2.39.74.98,1.48,1.96,2.22,2.95.65.86,1.29,1.72,1.93,2.59.12.15.23.31.35.47.65.89,1.3,1.78,1.95,2.67,1.6,2.19,3.17,4.4,4.72,6.62.49.7.98,1.4,1.47,2.1.13.19.26.38.39.56.97,1.4,1.93,2.8,2.88,4.21,1.21,1.78,2.4,3.57,3.57,5.37.94,1.42,1.87,2.85,2.79,4.29,1.04,1.62,2.07,3.25,3.09,4.88,2.04,3.27,4.05,6.57,6.01,9.9.98,1.66,1.95,3.33,2.92,5.01.96,1.66,1.91,3.34,2.85,5.02t.01.02c.89,1.6,1.78,3.21,2.66,4.82.15.26.29.53.42.79.73,1.34,1.45,2.68,2.16,4.03.16.28.31.56.45.84.88,1.67,1.75,3.34,2.61,5.02.86,1.67,1.7,3.36,2.54,5.05.25.5.49,1,.74,1.5.62,1.24,1.22,2.48,1.82,3.73.82,1.7,1.63,3.41,2.44,5.13.05.09.09.19.13.28.39.86.79,1.71,1.18,2.57.4.85.79,1.71,1.18,2.58.29.64.57,1.28.85,1.92.5,1.11.99,2.21,1.48,3.32.01.03.03.06.04.09.78,1.78,1.55,3.56,2.31,5.35.76,1.8,1.51,3.61,2.25,5.41.73,1.81,1.46,3.61,2.18,5.43h0c.71,1.82,1.42,3.64,2.11,5.46.63,1.66,1.25,3.32,1.86,4.98.23.62.46,1.24.68,1.86.37,1.01.74,2.02,1.09,3.04.21.58.41,1.15.61,1.73.2.56.39,1.12.59,1.68.16.48.33.95.49,1.43.22.63.43,1.25.64,1.88.53,1.56,1.05,3.13,1.56,4.7.24.72.47,1.43.7,2.15l.06.18c.36,1.13.72,2.27,1.08,3.41.14.43.27.86.4,1.29.2.66.41,1.31.61,1.97.08.28.17.55.25.83.21.69.42,1.38.62,2.07.04.13.08.27.12.4.19.64.38,1.28.57,1.93.17.57.34,1.14.5,1.72l.54,1.89c.25.89.5,1.78.75,2.68.26.91.51,1.82.76,2.74.03.14.07.27.11.4.36,1.31.71,2.63,1.04,3.95.19.67.36,1.34.53,2.02.78,3.03,1.52,6.09,2.24,9.15.15.64.31,1.28.46,1.92.04.17.07.33.11.49.17.73.34,1.46.5,2.19.07.33.15.67.22,1,.58,2.53,1.12,5.08,1.64,7.63.26,1.26.52,2.52.76,3.79.16.82.32,1.65.48,2.47.02.07.03.15.04.22.13.65.25,1.31.38,1.97.11.62.23,1.24.34,1.86.22,1.14.42,2.29.62,3.43.18.99.35,1.97.51,2.96.18,1.07.36,2.13.52,3.2.15.83.28,1.67.4,2.5.08.48.16.97.23,1.46.02.13.04.25.05.37.15.97.3,1.95.44,2.93.15.98.29,1.96.42,2.94.13.94.25,1.89.38,2.83.24,1.8.48,3.61.7,5.42.15,1.25.31,2.5.45,3.76.08.7.16,1.41.24,2.11.03.33.07.66.1,1,.15,1.27.28,2.54.4,3.81.05.53.1,1.06.15,1.59.09.9.18,1.81.26,2.72.02.19.03.39.05.59.16,1.72.3,3.45.43,5.17.02.22.04.44.05.66,0,.11.02.21.02.31.11,1.48.22,2.96.32,4.45,0,.13.02.27.03.4.01.22.03.45.04.67.1,1.55.2,3.1.28,4.65,0,.1.01.2.02.3.05.81.08,1.63.12,2.44.04.77.08,1.53.12,2.3.13,2.76.22,5.52.3,8.29.02.53.04,1.07.04,1.61.02.94.04,1.87.06,2.81.02.93.04,1.87.05,2.81v.25c0,1.03.03,2.05.03,3.08.02,1.03.02,2.06.02,3.09Z"/>
            <g>
                <path id="_ухо" data-name="ухо" class="cls-4"
                      d="M194.68,355.85l-39.26,10.79c-15.37,4.22-25.55,16.06-25.09,29.21,1.71,49.79,7.38,166.77,23.08,173.21,19.97,8.19,48.94,16.58,48.94,16.58l-7.66-229.78Z"/>
                <path id="_ухо-2" data-name="ухо" class="cls-4"
                      d="M765.33,355.85l39.26,10.79c15.37,4.22,25.55,16.06,25.09,29.21-1.71,49.79-7.38,166.77-23.08,173.21-19.97,8.19-48.94,16.58-48.94,16.58l7.66-229.78Z"/>
            </g>
            <path class="cls-4"
                  d="M838.95,789.8c-2.27,2.8-4.59,5.57-6.94,8.31h0c-3.49,4.08-7.04,8.09-10.67,12.04-1.93,2.12-3.89,4.23-5.87,6.31-46.79,49.23-103.8,88.2-167.52,113.3l-.15.06c-.73.29-1.47.57-2.2.86-.06.02-.13.04-.2.07-14.7,5.69-29.76,10.64-45.13,14.81-38.38,10.44-78.69,15.99-120.27,15.99s-81.9-5.55-120.28-15.99c-15.32-4.16-30.32-9.1-44.97-14.76-.13-.05-.24-.1-.36-.14-.65-.24-1.3-.49-1.94-.75-.01-.01-.03-.01-.04-.01-.1-.04-.19-.08-.29-.12-61.77-24.33-117.26-61.69-163.22-108.81-.19-.19-.39-.39-.58-.59-2.32-2.38-4.6-4.79-6.87-7.22-.4-.43-.81-.87-1.21-1.3-6.61-7.14-13.01-14.5-19.18-22.05,0-.3.01-.61.03-.92,2.72-51.31,98.65-95.57,148.26-115.08h.01c17.38-6.85,29.08-10.65,29.08-10.65h363.13s11.7,3.8,29.08,10.65h.01c49.61,19.51,145.54,63.77,148.26,115.08.02.31.03.61.03.91Z"/>
            <ellipse id="_голова" data-name="голова" class="cls-4" cx="480.01" cy="451.53" rx="303.07" ry="309.17"/>
            <ellipse id="_контур_голова" data-name="контур голова" class="cls-4" cx="480.01" cy="451.53" rx="303.07"
                     ry="309.17"/>
            <path class="cls-4"
                  d="M960,478.46v1.54c0,1.73-.01,3.45-.03,5.18-.02,2.42-.07,4.84-.14,7.25-.01.94-.04,1.87-.07,2.81-.01.44-.03.88-.05,1.32-.03,1.23-.08,2.45-.14,3.67-.01.4-.02.8-.05,1.19-.05,1.28-.11,2.55-.18,3.83-.03.68-.07,1.36-.1,2.04-.01.12-.02.25-.02.38-.04.67-.08,1.35-.13,2.03-.05.94-.11,1.88-.18,2.82-.05.88-.12,1.76-.18,2.64-.03.47-.07.94-.11,1.41-.09,1.24-.19,2.48-.29,3.72-.05.63-.1,1.26-.16,1.89-.04.47-.08.94-.12,1.4-.04.47-.09.94-.14,1.4-.05.6-.1,1.2-.17,1.8-.11,1.18-.22,2.35-.35,3.52-.05.5-.1.99-.16,1.49-.06.55-.11,1.11-.17,1.66-.07.56-.13,1.11-.2,1.66-.05.51-.11,1.02-.17,1.54-.12,1.05-.25,2.09-.39,3.14-.11.95-.23,1.91-.35,2.86-.12.95-.25,1.91-.38,2.86s-.26,1.9-.4,2.85c-.14.95-.28,1.9-.42,2.85-.14.97-.29,1.94-.44,2.91-.12.78-.24,1.56-.37,2.34-.21,1.35-.44,2.69-.66,4.04-.45,2.68-.93,5.36-1.43,8.04-.25,1.33-.51,2.67-.77,4-.21,1.12-.44,2.23-.66,3.34-.16.8-.33,1.6-.49,2.4-.17.8-.34,1.6-.51,2.39-.29,1.38-.59,2.77-.9,4.15-.23,1.03-.47,2.07-.71,3.1-.12.56-.25,1.13-.38,1.69-.14.56-.27,1.13-.41,1.69-.29,1.23-.58,2.47-.89,3.69,0,.02-.01.05-.02.07-.05.24-.11.48-.17.71-.26,1.07-.53,2.14-.81,3.21-.03.12-.06.25-.1.37-.24,1.01-.5,2-.77,3-.19.75-.39,1.51-.6,2.26-.2.75-.41,1.49-.61,2.24-.18.65-.36,1.31-.54,1.97-.18.65-.36,1.3-.55,1.96-.15.57-.32,1.15-.49,1.72-.31,1.1-.63,2.2-.96,3.3l-.66,2.22c-.22.74-.44,1.48-.67,2.22-.38,1.27-.77,2.54-1.18,3.8-.52,1.68-1.06,3.36-1.61,5.04-.48,1.46-.96,2.93-1.45,4.39-.49,1.46-.99,2.91-1.5,4.37h0c-.51,1.46-1.02,2.92-1.54,4.36-.52,1.45-1.05,2.89-1.58,4.33-.53,1.45-1.07,2.88-1.61,4.31h-.01c-1.1,2.88-2.22,5.73-3.36,8.57h0c-.58,1.43-1.16,2.84-1.74,4.25-.59,1.42-1.18,2.83-1.78,4.23-.6,1.41-1.21,2.82-1.82,4.22h0c-.61,1.41-1.23,2.8-1.86,4.19-.26.58-.53,1.17-.79,1.76-.27.59-.54,1.18-.81,1.76-.23.52-.47,1.04-.71,1.56-.5,1.08-1.01,2.16-1.52,3.24-.19.41-.39.82-.59,1.23-.49,1.04-.99,2.07-1.49,3.1-.53,1.11-1.07,2.21-1.61,3.31-.11.24-.22.47-.35.7-.03.07-.06.14-.1.21-.62,1.26-1.25,2.51-1.89,3.76-.69,1.36-1.38,2.71-2.08,4.06-1.41,2.7-2.84,5.39-4.29,8.06-.73,1.33-1.46,2.66-2.2,3.99-1.47,2.65-2.98,5.29-4.5,7.91-.38.66-.76,1.31-1.15,1.97-.38.65-.77,1.3-1.16,1.96-.77,1.3-1.55,2.6-2.34,3.89-.39.65-.78,1.3-1.18,1.94-.39.65-.79,1.29-1.2,1.94-.6.97-1.21,1.94-1.82,2.9-.15.25-.29.49-.45.73-.15.25-.31.49-.47.73-.33.51-.65,1.02-.98,1.53-.32.52-.65,1.02-.98,1.53-.05.08-.1.17-.15.25-.02.03-.04.06-.06.09-.07.11-.15.22-.23.33-.4.62-.8,1.23-1.2,1.85-.33.51-.66,1.02-1,1.53-.82,1.25-1.65,2.49-2.49,3.73-.5.75-1,1.49-1.51,2.22-.36.53-.72,1.06-1.08,1.58-.35.52-.71,1.04-1.08,1.56-.67.99-1.36,1.97-2.05,2.95-.69.98-1.38,1.96-2.08,2.94-7.15,10.01-14.69,19.73-22.61,29.14-2.33,2.8-4.7,5.57-7.11,8.31h0c-5.02,5.72-10.17,11.32-15.45,16.79-1.98,2.05-3.97,4.07-5.98,6.08-2.29,2.29-4.61,4.56-6.95,6.79-1.08,1.04-2.17,2.07-3.26,3.09-.8.76-1.61,1.52-2.42,2.27-2.1,1.97-4.23,3.91-6.37,5.81-1.01.92-2.04,1.83-3.07,2.74-2.05,1.82-4.12,3.62-6.21,5.38-1.04.89-2.09,1.77-3.14,2.65-2.1,1.78-4.21,3.52-6.34,5.23-1.07.86-2.14,1.71-3.21,2.57-2.44,1.94-4.9,3.86-7.37,5.74-37.8,28.9-80.01,52.28-125.46,68.99-.06.02-.13.04-.2.07-7.86,2.88-15.82,5.57-23.87,8.05-7.99,2.46-16.07,4.72-24.23,6.76-37.54,9.43-76.83,14.44-117.3,14.44s-79.74-5.01-117.28-14.44c-4.7-1.17-9.37-2.42-14.01-3.74-11.63-3.3-23.07-7.02-34.32-11.16-63.91-23.48-121.44-60.18-169.28-106.79-1.72-1.67-3.42-3.35-5.11-5.05-.83-.84-1.66-1.68-2.48-2.52-1.96-1.98-3.88-3.99-5.8-6-6.77-7.14-13.33-14.5-19.66-22.05-4.28-5.1-8.45-10.3-12.51-15.59-1.36-1.76-2.7-3.53-4.03-5.31-.08-.1-.15-.2-.22-.3-.1-.14-.21-.28-.31-.42-.62-.83-1.25-1.65-1.86-2.48-.4-.55-.8-1.1-1.2-1.65-.14-.2-.29-.4-.43-.6-.04-.06-.09-.12-.13-.17-.12-.16-.24-.33-.35-.49-2.49-3.43-4.93-6.89-7.32-10.38,0,0,0-.01,0-.01-1.66-2.43-3.31-4.87-4.92-7.33-.43-.63-.84-1.26-1.23-1.89-5.28-8.07-10.3-16.3-15.07-24.69-.05-.09-.1-.19-.15-.28-.79-1.4-1.58-2.79-2.36-4.2-.11-.19-.21-.39-.31-.58-.16-.29-.32-.57-.47-.85-.12-.22-.24-.44-.36-.66-.23-.41-.45-.81-.67-1.21-.22-.4-.44-.8-.66-1.21-.47-.87-.93-1.74-1.4-2.62-.13-.25-.27-.51-.41-.76-.2-.38-.4-.76-.61-1.15-.78-1.47-1.55-2.95-2.31-4.43-.02-.04-.05-.08-.06-.13-.1-.17-.19-.34-.27-.52-.69-1.36-1.38-2.72-2.06-4.08-1.15-2.3-2.28-4.61-3.4-6.94-1.12-2.32-2.22-4.66-3.29-7-.54-1.17-1.08-2.34-1.6-3.52-.43-.96-.85-1.91-1.28-2.86-.39-.87-.77-1.74-1.15-2.62-.11-.24-.21-.47-.31-.71-.64-1.49-1.28-2.98-1.91-4.48-1.32-3.12-2.6-6.26-3.84-9.41-.08-.19-.15-.38-.23-.58-.54-1.37-1.08-2.75-1.61-4.13-.12-.28-.23-.57-.33-.86-.55-1.43-1.09-2.87-1.62-4.31-.6-1.61-1.19-3.23-1.77-4.85-.03-.06-.05-.12-.07-.19-.56-1.58-1.12-3.17-1.67-4.75-.57-1.64-1.13-3.28-1.68-4.92h0c-.55-1.66-1.09-3.31-1.63-4.97-.53-1.66-1.05-3.32-1.57-4.98-.51-1.66-1.02-3.33-1.52-5-.5-1.68-.99-3.35-1.47-5.03-.47-1.65-.92-3.3-1.38-4.95,0-.01-.01-.02-.01-.03-.02-.05-.03-.1-.05-.16-.44-1.61-.87-3.23-1.29-4.85-.01-.04-.03-.09-.03-.13-.01-.02-.02-.03-.02-.05-.66-2.5-1.3-5-1.9-7.52-.21-.83-.41-1.66-.61-2.49-.02-.07-.04-.14-.06-.22-.38-1.63-.76-3.26-1.13-4.9-.02-.05-.03-.11-.04-.16-.28-1.22-.55-2.45-.81-3.67-.12-.5-.22-.99-.33-1.49-.09-.42-.18-.84-.27-1.26-.05-.24-.1-.49-.15-.73-.05-.23-.1-.46-.14-.69-.1-.48-.21-.96-.3-1.44-.08-.36-.16-.71-.23-1.06l-.18-.9c-.27-1.32-.53-2.64-.78-3.97l-.06-.33c-.29-1.45-.56-2.9-.82-4.35-.05-.29-.11-.57-.15-.86-.1-.52-.2-1.05-.29-1.57-.06-.35-.13-.7-.18-1.05-.08-.42-.15-.83-.22-1.24-.08-.46-.16-.92-.23-1.38-.13-.75-.26-1.51-.38-2.26-.05-.25-.09-.5-.12-.75l-.36-2.25c-.07-.42-.14-.83-.2-1.25-.14-.91-.28-1.83-.42-2.74-.06-.42-.13-.85-.18-1.28-.03-.18-.06-.35-.08-.53-.23-1.59-.45-3.18-.67-4.77-.19-1.42-.37-2.84-.55-4.27-.05-.35-.09-.69-.13-1.04-.16-1.33-.32-2.66-.48-4-.07-.5-.13-1-.18-1.5-.19-1.73-.38-3.45-.55-5.18-.04-.42-.09-.84-.12-1.26-.02-.11-.03-.22-.03-.34-.11-1.02-.21-2.04-.3-3.06-.02-.24-.04-.47-.06-.71-.09-.96-.18-1.94-.25-2.91-.05-.5-.09-.99-.13-1.49-.03-.33-.05-.65-.07-.98-.07-.76-.12-1.52-.17-2.28-.09-1.22-.18-2.44-.26-3.67-.01-.16-.02-.32-.03-.48h0c-.07-1.07-.14-2.13-.2-3.19-.03-.51-.07-1.01-.09-1.51-.03-.5-.06-1-.08-1.51-.07-1.2-.13-2.4-.17-3.61-.01-.21-.02-.43-.03-.64-.07-1.39-.12-2.78-.17-4.17-.02-.38-.03-.77-.04-1.16-.02-.72-.05-1.44-.06-2.17,0-.17,0-.34,0-.51,0-.05,0-.11-.01-.16-.03-.94-.05-1.87-.07-2.81,0-.22-.01-.44-.01-.66-.01-.33-.01-.66-.02-.99-.03-1.04-.04-2.08-.04-3.12-.01-.17-.01-.34-.01-.51-.02-1.66-.03-3.32-.03-4.98,0-1.55.01-3.1.03-4.65,0-.51,0-1.01.01-1.52v-.25c.03-1.88.06-3.75.11-5.62.01-.6.03-1.2.05-1.79.03-1.26.07-2.51.12-3.76.01-.32.02-.64.04-.96.02-.61.04-1.22.07-1.83.04-1.04.09-2.08.14-3.11.02-.37.03-.73.06-1.1,0-.07,0-.14.01-.21.02-.63.05-1.26.09-1.88.02-.38.04-.76.07-1.13.02-.41.04-.82.07-1.23.03-.6.07-1.19.11-1.78.03-.5.06-.99.09-1.48.08-1.17.16-2.33.25-3.49.04-.56.08-1.11.12-1.67.11-1.36.22-2.73.34-4.09.04-.49.08-.98.13-1.46.02-.29.04-.58.07-.87.08-.91.17-1.82.26-2.72.01-.06.01-.13.02-.19.1-1,.2-1.99.3-2.99.02-.2.04-.39.06-.59.02-.18.04-.35.06-.53.11-1.14.23-2.27.37-3.42.02-.26.05-.53.08-.79.11-.92.22-1.83.33-2.74.02-.16.04-.32.06-.47.26-2.17.54-4.34.83-6.5.05-.37.1-.74.15-1.12.06-.39.1-.79.16-1.18.1-.72.2-1.43.31-2.15.18-1.24.36-2.48.55-3.72.01-.12.03-.24.05-.37.14-.95.3-1.9.45-2.84.11-.71.23-1.42.34-2.12.04-.24.08-.48.12-.72.13-.77.26-1.55.4-2.33.04-.25.09-.49.13-.74.05-.32.11-.63.16-.95.11-.63.22-1.27.33-1.9.34-1.93.7-3.86,1.07-5.78.01-.07.02-.15.04-.22.32-1.65.64-3.3.98-4.94.08-.44.17-.88.26-1.32.37-1.79.75-3.57,1.14-5.35.39-1.83.8-3.65,1.22-5.47.04-.16.07-.32.11-.49.21-.91.42-1.81.65-2.71.22-.98.46-1.96.7-2.94.14-.59.29-1.18.44-1.76.29-1.22.6-2.44.91-3.66.03-.11.06-.23.09-.34.98-3.84,2.02-7.65,3.1-11.45.26-.93.53-1.85.8-2.77.04-.14.08-.28.12-.41.23-.79.46-1.58.69-2.36.04-.13.08-.27.12-.4.16-.55.33-1.1.5-1.65.05-.15.1-.31.14-.47.28-.91.56-1.83.84-2.75.11-.36.22-.73.34-1.09.53-1.69,1.06-3.37,1.61-5.05.6-1.87,1.22-3.73,1.85-5.59.28-.82.56-1.64.85-2.45.06-.21.13-.41.2-.61.22-.65.45-1.29.67-1.93.09-.28.19-.55.29-.83.62-1.76,1.26-3.52,1.9-5.27.67-1.84,1.35-3.67,2.05-5.5h0c.69-1.83,1.4-3.65,2.12-5.46.71-1.82,1.44-3.63,2.18-5.44.73-1.8,1.48-3.6,2.24-5.4h0c.76-1.8,1.53-3.58,2.31-5.36.78-1.78,1.57-3.56,2.37-5.33.8-1.77,1.61-3.54,2.44-5.3.51-1.1,1.03-2.2,1.55-3.29.53-1.1,1.05-2.19,1.58-3.28.53-1.09,1.06-2.18,1.6-3.27.1-.22.21-.43.32-.65.43-.87.86-1.73,1.31-2.6,1.07-2.16,2.18-4.31,3.31-6.44,0-.02,0-.03.01-.04.17-.33.35-.66.52-.99.12-.23.24-.46.37-.69.83-1.58,1.68-3.15,2.53-4.71,1.88-3.46,3.79-6.89,5.76-10.29.84-1.47,1.7-2.93,2.56-4.39.11-.2.23-.41.35-.61.93-1.56,1.86-3.11,2.79-4.65.06-.11.12-.21.19-.31.83-1.36,1.66-2.71,2.5-4.06.29-.49.59-.97.91-1.45,2.17-3.49,4.41-6.96,6.69-10.39.76-1.14,1.52-2.28,2.29-3.42,0,0,.01-.02.02-.03.81-1.2,1.62-2.4,2.45-3.59.26-.38.52-.77.79-1.15.54-.77,1.08-1.54,1.62-2.31.03-.04.06-.09.1-.14,1.64-2.33,3.29-4.66,4.98-6.96,1.13-1.55,2.28-3.1,3.43-4.64,1.15-1.54,2.31-3.07,3.48-4.6,9.59-12.52,19.79-24.55,30.55-36.05,2.3-2.46,4.63-4.9,6.99-7.31h0C223.55,55.49,345.29,0,480,0c122.4,0,234.09,45.81,318.87,121.24,4.17,3.71,8.27,7.49,12.31,11.34,2.09,1.98,4.15,3.98,6.2,6.02,1.02,1,2.04,2.02,3.06,3.05,1.01,1.02,2.02,2.05,3.03,3.08,1.34,1.37,2.67,2.75,4,4.14.06.05.1.1.14.14,1.27,1.34,2.54,2.69,3.8,4.05,1.31,1.4,2.61,2.82,3.9,4.24,1.29,1.41,2.57,2.83,3.83,4.26.17.18.33.36.49.55,1.01,1.14,2.02,2.29,3.02,3.44.55.63,1.1,1.28,1.65,1.92,2.05,2.37,4.06,4.77,6.05,7.19.03.02.05.05.08.08.99,1.21,1.99,2.43,2.98,3.66.27.33.55.67.81,1.01,1.15,1.42,2.28,2.85,3.41,4.28.8,1.02,1.6,2.05,2.4,3.08.09.11.17.22.25.33.62.79,1.23,1.59,1.84,2.39.74.98,1.48,1.96,2.22,2.95.65.86,1.29,1.72,1.93,2.59.12.15.23.31.35.47.65.89,1.3,1.78,1.95,2.67,1.6,2.19,3.17,4.4,4.72,6.62.49.7.98,1.4,1.47,2.1,1.1,1.58,2.19,3.17,3.27,4.77,1.21,1.78,2.4,3.57,3.57,5.37.94,1.42,1.87,2.85,2.79,4.29,1.04,1.62,2.07,3.25,3.09,4.88,2.04,3.27,4.05,6.57,6.01,9.9.98,1.66,1.95,3.33,2.92,5.01.96,1.66,1.91,3.34,2.85,5.02t.01.02c.89,1.6,1.78,3.21,2.66,4.82.15.26.29.53.42.79.73,1.34,1.45,2.68,2.16,4.03.16.28.31.56.45.84.88,1.67,1.75,3.34,2.61,5.02.86,1.67,1.7,3.36,2.54,5.05.25.5.49,1,.74,1.5.62,1.24,1.22,2.48,1.82,3.73.82,1.7,1.63,3.41,2.44,5.13.05.09.09.19.13.28.39.86.79,1.71,1.18,2.57.4.85.79,1.71,1.18,2.58.8,1.77,1.59,3.55,2.37,5.33.78,1.78,1.55,3.56,2.31,5.35h0c.76,1.81,1.51,3.61,2.25,5.41.73,1.81,1.46,3.61,2.18,5.43h0c.71,1.82,1.42,3.64,2.11,5.46.63,1.66,1.25,3.32,1.86,4.98.23.62.46,1.24.68,1.86.16.44.31.87.46,1.31.11.29.21.58.32.86.11.29.21.58.31.87.21.58.41,1.15.61,1.73.2.56.39,1.12.59,1.68.16.48.33.95.49,1.43.22.63.43,1.25.64,1.88.53,1.56,1.05,3.13,1.56,4.7.24.72.47,1.43.7,2.15l.06.18c.36,1.13.72,2.27,1.08,3.41.14.43.27.86.4,1.29.2.66.41,1.31.61,1.97.08.28.17.55.25.83.21.69.42,1.38.62,2.07.04.13.08.27.12.4.19.64.38,1.28.57,1.93.17.57.34,1.14.5,1.72l.54,1.89c.25.89.5,1.78.75,2.68.26.91.51,1.82.76,2.74.03.14.07.27.11.4.36,1.31.71,2.63,1.04,3.95.15.56.3,1.12.44,1.68.03.11.06.23.09.34.46,1.8.91,3.61,1.35,5.42.46,1.88.91,3.76,1.35,5.65.04.17.07.33.11.49.17.73.34,1.46.5,2.19.07.33.15.67.22,1,.17.76.34,1.52.5,2.28.39,1.78.77,3.56,1.14,5.35.09.44.18.88.26,1.32.17.82.34,1.64.5,2.47.16.82.32,1.65.48,2.47.02.07.03.15.04.22.13.65.25,1.31.38,1.97.11.62.23,1.24.34,1.86.12.65.24,1.3.35,1.95.09.49.18.99.27,1.48.18.99.35,1.97.51,2.96.08.49.16.99.24,1.48.1.57.19,1.14.28,1.72.15.83.28,1.67.4,2.5.08.48.16.97.23,1.46.02.13.04.25.05.37.15.97.3,1.95.44,2.93.15.98.29,1.96.42,2.94.15,1.1.3,2.19.44,3.29.19,1.4.37,2.8.54,4.21.2,1.5.38,3,.55,4.51.08.7.16,1.41.24,2.11.03.33.07.66.1,1,.08.74.16,1.48.23,2.22.06.53.11,1.06.17,1.59.05.53.1,1.06.15,1.59.09.9.18,1.81.26,2.72.07.77.14,1.55.2,2.33.1,1.14.19,2.29.29,3.43.01.22.03.44.05.66.04.56.08,1.11.12,1.67.07.92.14,1.83.2,2.76.02.24.03.49.05.73.02.34.04.68.06,1.03.05.74.1,1.48.14,2.23.05.78.1,1.57.14,2.36.06,1.06.11,2.13.16,3.19.03.51.06,1.03.08,1.55s.04,1.04.06,1.56c.04.93.08,1.86.11,2.79.05,1.25.09,2.5.12,3.76.02.59.04,1.19.05,1.79.02.94.04,1.87.06,2.81.02.93.04,1.87.05,2.81v.25c0,1.03.03,2.05.03,3.08.01.52.01,1.03.01,1.55Z"/>
            <g>
                <path class="cls-4"
                      d="M426.04,275.78c67.33-7.7,292.37,6.33,321.97,113.43,15.84,57.33-17.86,187.45-52.66,223.99-98.03,102.94-337.53,105.39-433.4-3.42-29.47-33.44-55.48-138.99-53.91-192.05,3.11-105.06,164.35-135.83,218-141.96Z"/>
                <path class="cls-4"
                      d="M530.27,274.02c-67.33-7.7-288.67,8.09-318.27,115.2-15.84,57.33,17.86,187.45,52.66,223.99,98.03,102.94,337.53,105.39,433.4-3.42,29.47-33.44,55.48-138.99,53.91-192.05-3.11-105.06-168.06-137.59-221.71-143.73Z"/>
            </g>
        </g>
        <g>
            <path id="_ухо-3" data-name="ухо" class="cls-1"
                  d="M144.73,358.38l-46.34,12.73c-18.14,4.98-30.15,18.95-29.62,34.47,2.02,58.76,8.71,196.81,27.23,204.41,23.57,9.67,57.76,19.57,57.76,19.57"/>
            <path id="_ухо-4" data-name="ухо" class="cls-1"
                  d="M818.17,358.38l46.34,12.73c18.14,4.98,30.15,18.95,29.62,34.47-2.02,58.76-8.71,196.81-27.23,204.41-23.57,9.67-57.76,19.57-57.76,19.57"/>
        </g>
        <!--    <path class="cls-1" d="M825.38,813.34c-1.98,2.05-3.97,4.07-5.98,6.08-2.29,2.29-4.61,4.56-6.95,6.79-1.08,1.04-2.17,2.07-3.26,3.09-.8.76-1.61,1.52-2.42,2.27-2.1,1.97-4.23,3.91-6.37,5.81-1.01.92-2.04,1.83-3.07,2.74-2.05,1.82-4.12,3.62-6.21,5.38-1.04.89-2.09,1.77-3.14,2.65-2.1,1.78-4.21,3.52-6.34,5.23-1.07.86-2.14,1.71-3.21,2.57-2.44,1.94-4.9,3.86-7.37,5.74-1.57,1.2-3.15,2.39-4.74,3.57-.91.68-1.83,1.36-2.75,2.03-35.86,26.34-75.5,47.78-117.97,63.39-.06.02-.13.04-.2.07-14.7,5.69-29.76,10.64-45.13,14.81-38.38,10.44-78.69,15.99-120.27,15.99s-81.9-5.55-120.28-15.99c-15.32-4.16-30.32-9.1-44.97-14.76-.13-.05-.24-.1-.36-.14-63.91-23.48-121.44-60.18-169.28-106.79-1.72-1.67-3.42-3.35-5.11-5.05-.83-.84-1.66-1.68-2.48-2.52,0-.01.01-.01.02-.02,1.3-1.05,2.6-2.09,3.91-3.12,32.29-25.58,66.32-45.97,90.15-59.01h.01c18.99-10.39,31.5-16.12,31.5-16.12h440.38s12.51,5.73,31.5,16.12h0c22.9,12.53,55.2,31.84,86.34,56,1.34,1.05,2.68,2.11,4.02,3.17.01,0,.02.02.02.02Z"/>-->
        <!--    <path class="cls-1" d="M808.51,800.24c-2.23,2.23-4.49,4.44-6.76,6.61-46.08,44.29-101.21,79.18-162.36,101.66-.06.02-.13.04-.19.07-50.05,19.37-104.29,29.97-160.95,29.97s-111.05-10.63-161.16-30.06c-62.19-22.85-118.17-58.56-164.73-103.92,0-.02,0-.02.02-.02,1.22-.95,2.44-1.89,3.67-2.8,30.25-22.95,61.33-41.38,82.67-53.38h0c18.48-10.39,30.65-16.12,30.65-16.12h428.54s12.17,5.73,30.65,16.12h0c19.88,11.18,48.04,28.07,76.12,48.99,1.27.94,2.54,1.9,3.81,2.87t.02,0Z"/>-->
        <ellipse id="_голова-2" data-name="голова" class="cls-2" cx="481.45" cy="471.29" rx="357.67" ry="364.86"/>
        <path class="cls-3"
              d="M802.41,431.43c-.08-2.7-.26-5.36-.51-7.98-.71-9.45-2.06-18.11-4.16-25.68-14.24-51.51-66.78-84.78-129.42-105.5-49.74-18.61-100.57-27.36-127.55-30.44-21.42-2.45-56.04-2.88-95.88.26-10.46.33-19.62.96-27.12,1.82-14.3,1.64-35.07,4.75-58.71,10.03-87.82,17.73-174.77,54.64-193.89,123.84-2.07,7.5-3.42,16.06-4.14,25.41-.27,2.71-.45,5.46-.53,8.26-.07,2.27-.09,4.63-.07,7.06-.47,75.69,32.76,187.78,66.89,223.61,5.59,5.87,11.57,11.45,17.89,16.77,58.76,50.67,147.52,75.27,236.24,74.92,88.73.35,177.49-24.24,236.25-74.92,6.33-5.31,12.31-10.9,17.89-16.77,34.13-35.84,67.36-147.93,66.89-223.61.02-2.43,0-4.79-.07-7.06Z"/>
    </g>
</svg>
